<svg width="80" height="80" viewBox="0 0 80 80" fill="none" xmlns="http://www.w3.org/2000/svg">
<rect width="80" height="80" rx="40" fill="url(#paint0_linear)" fill-opacity="0.1"/>
<path d="M28.7812 47H18.8008V44.9004L22.3848 41.2773C23.446 40.1901 24.1393 39.4382 24.4648 39.0215C24.7904 38.5983 25.0247 38.2077 25.168 37.8496C25.3112 37.4915 25.3828 37.1204 25.3828 36.7363C25.3828 36.1634 25.2233 35.737 24.9043 35.457C24.5918 35.1771 24.1719 35.0371 23.6445 35.0371C23.0911 35.0371 22.554 35.1641 22.0332 35.418C21.5124 35.6719 20.9688 36.0332 20.4023 36.502L18.7617 34.5586C19.4648 33.9596 20.0475 33.5365 20.5098 33.2891C20.972 33.0417 21.4766 32.8529 22.0234 32.7227C22.5703 32.5859 23.1823 32.5176 23.8594 32.5176C24.7513 32.5176 25.5391 32.6803 26.2227 33.0059C26.9062 33.3314 27.4368 33.7871 27.8145 34.373C28.1921 34.959 28.3809 35.6296 28.3809 36.3848C28.3809 37.0423 28.2637 37.6608 28.0293 38.2402C27.8014 38.8132 27.4434 39.4023 26.9551 40.0078C26.4733 40.6133 25.6204 41.4759 24.3965 42.5957L22.5605 44.3242V44.4609H28.7812V47ZM40.5293 44.041H38.8105V47H35.8613V44.041H29.7676V41.9414L36.0273 32.7227H38.8105V41.6973H40.5293V44.041ZM35.8613 41.6973V39.2754C35.8613 38.8717 35.8776 38.2858 35.9102 37.5176C35.9427 36.7493 35.9688 36.3034 35.9883 36.1797H35.9102C35.6693 36.7135 35.3796 37.2344 35.041 37.7422L32.4238 41.6973H35.8613ZM49.0156 32.7227L43.6934 47H40.9883L46.3105 32.7227H49.0156ZM51.3301 47L56.6914 35.2812H49.6504V32.7422H59.8945V34.6367L54.4941 47H51.3301Z" fill="black" fill-opacity="0.6"/>
<defs>
<linearGradient id="paint0_linear" x1="8.5" y1="8" x2="77.5" y2="66.5" gradientUnits="userSpaceOnUse">
<stop stop-color="#00BFFF"/>
<stop offset="1" stop-color="#ECC2AC"/>
</linearGradient>
</defs>
</svg>
