<svg width="80" height="80" viewBox="0 0 80 80" fill="none" xmlns="http://www.w3.org/2000/svg">
<rect width="80" height="80" rx="40" fill="url(#paint0_linear)" fill-opacity="0.1"/>
<path d="M30.2246 43.0352C30.2246 44.3242 29.7591 45.3398 28.8281 46.082C27.9036 46.8242 26.6146 47.1953 24.9609 47.1953C23.4375 47.1953 22.0898 46.9089 20.918 46.3359V43.5234C21.8815 43.9531 22.6953 44.2559 23.3594 44.4316C24.0299 44.6074 24.6419 44.6953 25.1953 44.6953C25.8594 44.6953 26.3672 44.5684 26.7188 44.3145C27.0768 44.0605 27.2559 43.6829 27.2559 43.1816C27.2559 42.9017 27.1777 42.6543 27.0215 42.4395C26.8652 42.2181 26.6341 42.0065 26.3281 41.8047C26.0286 41.6029 25.4134 41.2806 24.4824 40.8379C23.61 40.4277 22.9557 40.0339 22.5195 39.6562C22.0833 39.2786 21.735 38.8392 21.4746 38.3379C21.2142 37.8366 21.084 37.2507 21.084 36.5801C21.084 35.3171 21.5104 34.3242 22.3633 33.6016C23.2227 32.8789 24.4076 32.5176 25.918 32.5176C26.6602 32.5176 27.3665 32.6055 28.0371 32.7812C28.7142 32.957 29.4206 33.2044 30.1562 33.5234L29.1797 35.877C28.418 35.5645 27.7865 35.3464 27.2852 35.2227C26.7904 35.099 26.3021 35.0371 25.8203 35.0371C25.2474 35.0371 24.8079 35.1706 24.502 35.4375C24.196 35.7044 24.043 36.0527 24.043 36.4824C24.043 36.7493 24.1048 36.9837 24.2285 37.1855C24.3522 37.3809 24.5475 37.5729 24.8145 37.7617C25.0879 37.944 25.7292 38.276 26.7383 38.7578C28.0729 39.3958 28.9876 40.0371 29.4824 40.6816C29.9772 41.3197 30.2246 42.1042 30.2246 43.0352ZM41.0352 47H32.8125V32.7227H41.0352V35.2031H35.8398V38.3379H40.6738V40.8184H35.8398V44.5H41.0352V47ZM56.9824 39.8418C56.9824 42.2051 56.3965 44.0215 55.2246 45.291C54.0527 46.5605 52.373 47.1953 50.1855 47.1953C47.998 47.1953 46.3184 46.5605 45.1465 45.291C43.9746 44.0215 43.3887 42.1986 43.3887 39.8223C43.3887 37.446 43.9746 35.6328 45.1465 34.3828C46.3249 33.1263 48.0111 32.498 50.2051 32.498C52.3991 32.498 54.0755 33.1296 55.2344 34.3926C56.3997 35.6556 56.9824 37.472 56.9824 39.8418ZM46.5625 39.8418C46.5625 41.4368 46.8652 42.638 47.4707 43.4453C48.0762 44.2526 48.9811 44.6562 50.1855 44.6562C52.6009 44.6562 53.8086 43.0514 53.8086 39.8418C53.8086 36.6257 52.6074 35.0176 50.2051 35.0176C49.0007 35.0176 48.0924 35.4245 47.4805 36.2383C46.8685 37.0456 46.5625 38.2467 46.5625 39.8418Z" fill="black" fill-opacity="0.6"/>
<defs>
<linearGradient id="paint0_linear" x1="8.5" y1="8" x2="77.5" y2="66.5" gradientUnits="userSpaceOnUse">
<stop stop-color="#00BFFF"/>
<stop offset="1" stop-color="#ECC2AC"/>
</linearGradient>
</defs>
</svg>
