<svg width="80" height="80" viewBox="0 0 80 80" fill="none" xmlns="http://www.w3.org/2000/svg">
<rect width="80" height="80" rx="40" fill="url(#paint0_linear)" fill-opacity="0.1"/>
<path d="M17.8242 39.4414H18.8203C19.7513 39.4414 20.4479 39.2591 20.9102 38.8945C21.3724 38.5234 21.6035 37.9863 21.6035 37.2832C21.6035 36.5736 21.4082 36.0495 21.0176 35.7109C20.6335 35.3724 20.028 35.2031 19.2012 35.2031H17.8242V39.4414ZM24.6602 37.1758C24.6602 38.7122 24.1784 39.8874 23.2148 40.7012C22.2578 41.515 20.8939 41.9219 19.123 41.9219H17.8242V47H14.7969V32.7227H19.3574C21.0892 32.7227 22.4043 33.097 23.3027 33.8457C24.2077 34.5879 24.6602 35.6979 24.6602 37.1758ZM27.3555 47V32.7227H30.3828V44.5H36.1738V47H27.3555ZM50.2852 32.7227V41.9609C50.2852 43.0156 50.0475 43.9401 49.5723 44.7344C49.1035 45.5286 48.4232 46.1374 47.5312 46.5605C46.6393 46.9837 45.5846 47.1953 44.3672 47.1953C42.5312 47.1953 41.1055 46.7266 40.0898 45.7891C39.0742 44.8451 38.5664 43.556 38.5664 41.9219V32.7227H41.584V41.4629C41.584 42.5632 41.8053 43.3704 42.248 43.8848C42.6908 44.3991 43.4232 44.6562 44.4453 44.6562C45.4349 44.6562 46.151 44.3991 46.5938 43.8848C47.043 43.3639 47.2676 42.5501 47.2676 41.4434V32.7227H50.2852ZM59.2012 38.9824H64.8652V46.3848C63.9473 46.6842 63.0814 46.8926 62.2676 47.0098C61.4603 47.1335 60.6335 47.1953 59.7871 47.1953C57.6322 47.1953 55.985 46.5638 54.8457 45.3008C53.7129 44.0312 53.1465 42.2116 53.1465 39.8418C53.1465 37.5371 53.804 35.7402 55.1191 34.4512C56.4408 33.1621 58.2702 32.5176 60.6074 32.5176C62.0723 32.5176 63.485 32.8105 64.8457 33.3965L63.8398 35.8184C62.7982 35.2975 61.7142 35.0371 60.5879 35.0371C59.2793 35.0371 58.2311 35.4766 57.4434 36.3555C56.6556 37.2344 56.2617 38.416 56.2617 39.9004C56.2617 41.4499 56.5775 42.6348 57.209 43.4551C57.847 44.2689 58.7715 44.6758 59.9824 44.6758C60.6139 44.6758 61.2552 44.6107 61.9062 44.4805V41.502H59.2012V38.9824Z" fill="black" fill-opacity="0.6"/>
<defs>
<linearGradient id="paint0_linear" x1="8.5" y1="8" x2="77.5" y2="66.5" gradientUnits="userSpaceOnUse">
<stop stop-color="#00BFFF"/>
<stop offset="1" stop-color="#ECC2AC"/>
</linearGradient>
</defs>
</svg>
