<svg width="80" height="80" viewBox="0 0 80 80" fill="none" xmlns="http://www.w3.org/2000/svg">
<rect width="80" height="80" rx="40" fill="url(#paint0_linear)" fill-opacity="0.1"/>
<path d="M27.5371 47L26.502 43.6016H21.2969L20.2617 47H17L22.0391 32.6641H25.7402L30.7988 47H27.5371ZM25.7793 41.0625C24.8223 37.9831 24.2819 36.2415 24.1582 35.8379C24.041 35.4342 23.9564 35.1152 23.9043 34.8809C23.6895 35.7142 23.0742 37.7747 22.0586 41.0625H25.7793ZM46.5117 47H43.0645L41.1309 39.5C41.0592 39.2331 40.9355 38.6829 40.7598 37.8496C40.5905 37.0098 40.4928 36.4466 40.4668 36.1602C40.4277 36.5117 40.3301 37.0781 40.1738 37.8594C40.0176 38.6341 39.8971 39.1875 39.8125 39.5195L37.8887 47H34.4512L30.8086 32.7227H33.7871L35.6133 40.5156C35.9323 41.9544 36.1634 43.2012 36.3066 44.2559C36.3457 43.8848 36.4336 43.3118 36.5703 42.5371C36.7135 41.7559 36.847 41.1504 36.9707 40.7207L39.0508 32.7227H41.9121L43.9922 40.7207C44.0833 41.0788 44.1973 41.6257 44.334 42.3613C44.4707 43.097 44.5749 43.7285 44.6465 44.2559C44.7116 43.748 44.8158 43.1165 44.959 42.3613C45.1022 41.5996 45.2324 40.9844 45.3496 40.5156L47.166 32.7227H50.1445L46.5117 47ZM60.3691 43.0352C60.3691 44.3242 59.9036 45.3398 58.9727 46.082C58.0482 46.8242 56.7591 47.1953 55.1055 47.1953C53.582 47.1953 52.2344 46.9089 51.0625 46.3359V43.5234C52.026 43.9531 52.8398 44.2559 53.5039 44.4316C54.1745 44.6074 54.7865 44.6953 55.3398 44.6953C56.0039 44.6953 56.5117 44.5684 56.8633 44.3145C57.2214 44.0605 57.4004 43.6829 57.4004 43.1816C57.4004 42.9017 57.3223 42.6543 57.166 42.4395C57.0098 42.2181 56.7786 42.0065 56.4727 41.8047C56.1732 41.6029 55.5579 41.2806 54.627 40.8379C53.7546 40.4277 53.1003 40.0339 52.6641 39.6562C52.2279 39.2786 51.8796 38.8392 51.6191 38.3379C51.3587 37.8366 51.2285 37.2507 51.2285 36.5801C51.2285 35.3171 51.6549 34.3242 52.5078 33.6016C53.3672 32.8789 54.5521 32.5176 56.0625 32.5176C56.8047 32.5176 57.5111 32.6055 58.1816 32.7812C58.8587 32.957 59.5651 33.2044 60.3008 33.5234L59.3242 35.877C58.5625 35.5645 57.931 35.3464 57.4297 35.2227C56.9349 35.099 56.4466 35.0371 55.9648 35.0371C55.3919 35.0371 54.9525 35.1706 54.6465 35.4375C54.3405 35.7044 54.1875 36.0527 54.1875 36.4824C54.1875 36.7493 54.2493 36.9837 54.373 37.1855C54.4967 37.3809 54.6921 37.5729 54.959 37.7617C55.2324 37.944 55.8737 38.276 56.8828 38.7578C58.2174 39.3958 59.1322 40.0371 59.627 40.6816C60.1217 41.3197 60.3691 42.1042 60.3691 43.0352Z" fill="black" fill-opacity="0.6"/>
<defs>
<linearGradient id="paint0_linear" x1="8.5" y1="8" x2="77.5" y2="66.5" gradientUnits="userSpaceOnUse">
<stop stop-color="#00BFFF"/>
<stop offset="1" stop-color="#ECC2AC"/>
</linearGradient>
</defs>
</svg>
