<svg width="80" height="80" viewBox="0 0 80 80" fill="none" xmlns="http://www.w3.org/2000/svg">
<rect width="80" height="80" rx="40" fill="url(#paint0_linear)" fill-opacity="0.1"/>
<path d="M15.8242 39.4414H16.8203C17.7513 39.4414 18.4479 39.2591 18.9102 38.8945C19.3724 38.5234 19.6035 37.9863 19.6035 37.2832C19.6035 36.5736 19.4082 36.0495 19.0176 35.7109C18.6335 35.3724 18.028 35.2031 17.2012 35.2031H15.8242V39.4414ZM22.6602 37.1758C22.6602 38.7122 22.1784 39.8874 21.2148 40.7012C20.2578 41.515 18.8939 41.9219 17.123 41.9219H15.8242V47H12.7969V32.7227H17.3574C19.0892 32.7227 20.4043 33.097 21.3027 33.8457C22.2077 34.5879 22.6602 35.6979 22.6602 37.1758ZM28.3828 39.0605H29.3594C30.3164 39.0605 31.0228 38.901 31.4785 38.582C31.9342 38.263 32.1621 37.7617 32.1621 37.0781C32.1621 36.401 31.9277 35.9193 31.459 35.6328C30.9967 35.3464 30.2773 35.2031 29.3008 35.2031H28.3828V39.0605ZM28.3828 41.5215V47H25.3555V32.7227H29.5156C31.4557 32.7227 32.8913 33.0775 33.8223 33.7871C34.7533 34.4902 35.2188 35.5612 35.2188 37C35.2188 37.8398 34.9876 38.5885 34.5254 39.2461C34.0632 39.8971 33.4089 40.4082 32.5625 40.7793C34.7109 43.9889 36.1107 46.0625 36.7617 47H33.4023L29.9941 41.5215H28.3828ZM38.5586 47V32.7227H41.5859V47H38.5586ZM51.2441 35.0371C50.1048 35.0371 49.2227 35.4668 48.5977 36.3262C47.9727 37.179 47.6602 38.3704 47.6602 39.9004C47.6602 43.084 48.8548 44.6758 51.2441 44.6758C52.2467 44.6758 53.4609 44.4251 54.8867 43.9238V46.4629C53.7148 46.9512 52.4062 47.1953 50.9609 47.1953C48.8841 47.1953 47.2956 46.5671 46.1953 45.3105C45.0951 44.0475 44.5449 42.2376 44.5449 39.8809C44.5449 38.3965 44.8151 37.0977 45.3555 35.9844C45.8958 34.8646 46.6706 34.0085 47.6797 33.416C48.6953 32.8171 49.8835 32.5176 51.2441 32.5176C52.6309 32.5176 54.0241 32.8529 55.4238 33.5234L54.4473 35.9844C53.9134 35.7305 53.3763 35.5091 52.8359 35.3203C52.2956 35.1315 51.765 35.0371 51.2441 35.0371ZM66.1562 47H57.9336V32.7227H66.1562V35.2031H60.9609V38.3379H65.7949V40.8184H60.9609V44.5H66.1562V47Z" fill="black" fill-opacity="0.6"/>
<defs>
<linearGradient id="paint0_linear" x1="8.5" y1="8" x2="77.5" y2="66.5" gradientUnits="userSpaceOnUse">
<stop stop-color="#00BFFF"/>
<stop offset="1" stop-color="#ECC2AC"/>
</linearGradient>
</defs>
</svg>
