<svg width="80" height="80" viewBox="0 0 80 80" fill="none" xmlns="http://www.w3.org/2000/svg">
<rect width="80" height="80" rx="40" fill="url(#paint0_linear)" fill-opacity="0.1"/>
<path d="M19.3047 47H16.2773V35.2422H12.4004V32.7227H23.1816V35.2422H19.3047V47ZM33.6016 47H25.3789V32.7227H33.6016V35.2031H28.4062V38.3379H33.2402V40.8184H28.4062V44.5H33.6016V47ZM42.6348 47L39.1973 35.7988H39.1094C39.2331 38.0775 39.2949 39.5977 39.2949 40.3594V47H36.5898V32.7227H40.7109L44.0898 43.6406H44.1484L47.7324 32.7227H51.8535V47H49.0312V40.2422C49.0312 39.9232 49.0345 39.5553 49.041 39.1387C49.054 38.722 49.0996 37.6152 49.1777 35.8184H49.0898L45.4082 47H42.6348ZM58.4844 39.4414H59.4805C60.4115 39.4414 61.1081 39.2591 61.5703 38.8945C62.0326 38.5234 62.2637 37.9863 62.2637 37.2832C62.2637 36.5736 62.0684 36.0495 61.6777 35.7109C61.2936 35.3724 60.6882 35.2031 59.8613 35.2031H58.4844V39.4414ZM65.3203 37.1758C65.3203 38.7122 64.8385 39.8874 63.875 40.7012C62.918 41.515 61.554 41.9219 59.7832 41.9219H58.4844V47H55.457V32.7227H60.0176C61.7493 32.7227 63.0645 33.097 63.9629 33.8457C64.8678 34.5879 65.3203 35.6979 65.3203 37.1758Z" fill="black" fill-opacity="0.6"/>
<defs>
<linearGradient id="paint0_linear" x1="8.5" y1="8" x2="77.5" y2="66.5" gradientUnits="userSpaceOnUse">
<stop stop-color="#00BFFF"/>
<stop offset="1" stop-color="#ECC2AC"/>
</linearGradient>
</defs>
</svg>
