<svg width="116" height="23" viewBox="0 0 116 23" fill="none" xmlns="http://www.w3.org/2000/svg">
<path d="M78.6795 0.73291H78.6771C77.8384 0.73291 77.1597 1.41315 77.1597 2.25387C77.1597 3.09459 77.8384 3.77483 78.6771 3.77483H78.6795C79.5183 3.77483 80.197 3.09459 80.197 2.25387C80.197 1.41315 79.5183 0.73291 78.6795 0.73291Z" fill="white"/>
<path d="M97.15 9.86106C95.764 8.01435 93.5606 6.81914 91.0777 6.81914C89.3691 6.81914 87.7919 7.38441 86.5254 8.3401V3.77723C86.5254 2.09579 85.1656 0.73291 83.488 0.73291V14.4239C83.488 14.9437 83.5406 15.4539 83.641 15.9449C83.868 17.0682 84.3436 18.103 85.0079 18.9868C85.438 19.5641 85.9494 20.079 86.5254 20.5078C87.7943 21.4658 89.3691 22.0287 91.0777 22.0287C93.5606 22.0287 95.7664 20.8335 97.15 18.9844C97.8143 18.1006 98.2899 17.0658 98.5169 15.9425C98.6173 15.4515 98.6698 14.9413 98.6698 14.4215C98.6698 13.8994 98.6173 13.3916 98.5169 12.9006C98.2875 11.7772 97.8143 10.7425 97.15 9.86106ZM95.3721 15.9449C94.746 17.7173 93.0588 18.9868 91.0777 18.9868C89.0967 18.9868 87.4096 17.7173 86.7835 15.9449C86.6186 15.4706 86.5254 14.9581 86.5254 14.4239C86.5254 13.8898 86.6186 13.3772 86.7835 12.903C87.4096 11.1305 89.0967 9.86106 91.0777 9.86106C93.0588 9.86106 94.746 11.1305 95.3721 12.903C95.5369 13.3772 95.6301 13.8898 95.6301 14.4239C95.6301 14.9581 95.5393 15.4706 95.3721 15.9449Z" fill="white"/>
<path d="M55.3571 9.86101C53.971 8.0143 51.7677 6.81909 49.2848 6.81909C46.8019 6.81909 44.5986 8.0143 43.2174 9.86101C42.553 10.7448 42.0775 11.7796 41.8505 12.9029C41.7501 13.3939 41.6975 13.9041 41.6975 14.4239C41.6975 14.9436 41.7501 15.4538 41.8505 15.9448C42.0775 17.0682 42.553 18.1029 43.2174 18.9868C44.5986 20.8359 46.8043 22.0311 49.2848 22.0311C51.7677 22.0311 53.9734 20.8359 55.3571 18.9868C56.0214 18.1029 56.497 17.0682 56.724 15.9448C56.8243 15.4538 56.8769 14.9436 56.8769 14.4239C56.8769 13.9017 56.8243 13.3939 56.724 12.9029C56.4946 11.7772 56.0214 10.7424 55.3571 9.86101ZM53.5791 15.9448C52.953 17.7173 51.2659 18.9868 49.2848 18.9868C47.3038 18.9868 45.6166 17.7173 44.9905 15.9448C44.8256 15.4706 44.7324 14.958 44.7324 14.4239C44.7324 13.8898 44.8256 13.3772 44.9905 12.9029C45.6166 11.1305 47.3038 9.86101 49.2848 9.86101C51.2659 9.86101 52.953 11.1305 53.5791 12.9029C53.744 13.3772 53.8372 13.8898 53.8372 14.4239C53.8372 14.958 53.7464 15.4706 53.5791 15.9448Z" fill="white"/>
<path d="M77.1597 9.8634V22.0311H80.197V6.81909C78.5194 6.81909 77.1597 8.18196 77.1597 9.8634Z" fill="white"/>
<path d="M112.625 6.81909V14.4239C112.625 14.958 112.532 15.4706 112.367 15.9448C111.741 17.7173 110.054 18.9868 108.073 18.9868C106.092 18.9868 104.405 17.7173 103.779 15.9448C103.614 15.4706 103.52 14.958 103.52 14.4239V6.81909H100.483V14.4239C100.483 14.9436 100.536 15.4538 100.636 15.9448C100.863 17.0682 101.339 18.1029 102.003 18.9868C102.433 19.564 102.945 20.079 103.52 20.5077C104.789 21.4658 106.364 22.0287 108.073 22.0287C109.781 22.0287 111.359 21.4634 112.625 20.5077C113.201 20.0766 113.715 19.564 114.143 18.9868C114.807 18.1029 115.283 17.0682 115.51 15.9448C115.61 15.4538 115.663 14.9436 115.663 14.4239V6.81909H112.625Z" fill="white"/>
<path d="M33.8084 6.81909C32.0998 6.81909 30.5226 7.38436 29.256 8.34005C28.8952 8.61071 28.5582 8.9125 28.2571 9.24304C28.0683 9.43945 27.8987 9.64304 27.7362 9.85861C27.0718 10.7424 26.5987 11.7772 26.3693 12.9005C26.2689 13.3915 26.2163 13.9017 26.2163 14.4215C26.2163 14.9412 26.2689 15.4514 26.3693 15.9424C26.5963 17.0658 27.0718 18.1005 27.7362 18.9844C27.8963 19.1999 28.0707 19.4083 28.2571 19.6047C28.563 19.9353 28.8976 20.2371 29.256 20.5077C30.5249 21.4658 32.0998 22.0287 33.8084 22.0287C36.2913 22.0287 38.497 20.8335 39.8806 18.9844L37.5459 17.0251C36.7238 18.2083 35.3569 18.9844 33.8084 18.9844C32.5514 18.9844 31.4139 18.4742 30.5895 17.6478C30.1139 17.1712 29.7435 16.5915 29.5141 15.9424C29.3492 15.4682 29.256 14.9556 29.256 14.4215C29.256 13.8874 29.3492 13.3748 29.5141 12.9005C29.7435 12.2514 30.1139 11.6742 30.5895 11.1951C31.4139 10.3688 32.5514 9.85861 33.8084 9.85861C35.3569 9.85861 36.7238 10.6323 37.5459 11.8179L39.8806 9.86101V9.85861C38.4946 8.0143 36.2913 6.81909 33.8084 6.81909Z" fill="white"/>
<path d="M70.8325 3.77727V8.34014C69.5635 7.38206 67.9887 6.81919 66.2801 6.81919C63.7972 6.81919 61.5939 8.0144 60.2078 9.8611C59.5435 10.7449 59.0703 11.7797 58.8409 12.903C58.7406 13.394 58.688 13.9042 58.688 14.424C58.688 14.9437 58.7406 15.4539 58.8409 15.9449C59.0679 17.0683 59.5435 18.103 60.2078 18.9869C61.5915 20.836 63.7972 22.0312 66.2801 22.0312C67.9887 22.0312 69.5659 21.4659 70.8325 20.5102C71.4084 20.0791 71.9222 19.5665 72.3499 18.9892C73.0143 18.1054 73.4898 17.0707 73.7169 15.9473C73.8172 15.4563 73.8698 14.9461 73.8698 14.4264V0.735355C72.1922 0.73296 70.8325 2.09584 70.8325 3.77727ZM70.5744 15.9449C69.9483 17.7174 68.2612 18.9869 66.2801 18.9869C64.299 18.9869 62.6119 17.7174 61.9858 15.9449C61.8209 15.4707 61.7277 14.9581 61.7277 14.424C61.7277 13.8898 61.8209 13.3773 61.9858 12.903C62.6119 11.1306 64.299 9.8611 66.2801 9.8611C68.2612 9.8611 69.9483 11.1306 70.5744 12.903C70.7393 13.3773 70.8325 13.8898 70.8325 14.424C70.8325 14.9581 70.7393 15.4707 70.5744 15.9449Z" fill="white"/>
<path d="M9.4407 1.09253L1.50449 5.59792C1.47103 5.61708 1.43996 5.63624 1.40651 5.6578C1.1771 5.81109 0.990698 6.0099 0.852095 6.25181L0.809082 6.32846L2.36478 7.2099L8.82176 3.54283C9.19217 3.33205 9.47415 2.99194 9.61276 2.58714C9.77287 2.11529 9.72507 1.59792 9.47893 1.16678L9.4407 1.09253Z" fill="white"/>
<path d="M20.1218 6.25391C20.0334 6.09823 19.9235 5.9593 19.7944 5.83475C19.7514 5.79403 19.7084 5.75811 19.663 5.72218C19.6009 5.67667 19.5387 5.63355 19.479 5.60002L11.538 1.08984L11.495 1.16648C11.2512 1.60002 11.2011 2.11739 11.3612 2.58685C11.495 2.98445 11.7674 3.31978 12.1402 3.53775L18.6091 7.212L20.1648 6.32816L20.1218 6.25391Z" fill="white"/>
<path d="M0.88496 8.02395L0.894521 8.04551L0.904082 8.0503C0.913641 8.06707 0.923199 8.08144 0.932758 8.09581C0.961434 8.14132 0.994888 8.18443 1.02834 8.22276L1.07136 8.27305C1.08809 8.29461 1.10721 8.31617 1.12632 8.33293L1.15739 8.36407C1.18607 8.39282 1.21713 8.41916 1.24581 8.44311C1.2721 8.46706 1.30316 8.48862 1.32467 8.50539C1.339 8.51737 1.35096 8.52695 1.36529 8.53413L1.42981 8.57964C1.43698 8.58443 1.44415 8.58922 1.45371 8.59641C1.47044 8.60599 1.48956 8.61797 1.50629 8.62755L9.4425 13.1329L9.48551 13.0563C9.73165 12.6228 9.77945 12.103 9.61695 11.6335C9.48073 11.2287 9.20114 10.891 8.82595 10.6778L0.896906 6.17725L0.853893 6.25389C0.550401 6.79282 0.550405 7.43473 0.851508 7.97126C0.865847 7.98802 0.875402 8.00718 0.88496 8.02395Z" fill="white"/>
<path d="M8.84145 15.1474L0.898072 10.6372L0.85506 10.7139C0.391457 11.533 0.673443 12.5917 1.48355 13.0755L9.44366 17.5953L9.48668 17.5186C9.73282 17.0851 9.78061 16.5653 9.61811 16.0983C9.48428 15.6959 9.20708 15.3606 8.84145 15.1474Z" fill="white"/>
<path d="M9.07761 19.77H9.13019L0.900038 15.0994L0.857025 15.176C0.627613 15.5808 0.570262 16.0527 0.694527 16.5006C0.818792 16.9485 1.11033 17.3221 1.52614 17.5592L6.49195 20.3784L9.44324 22.0551L9.48625 21.9784C9.73239 21.5449 9.78019 21.0251 9.61769 20.5557C9.51493 20.2443 9.32614 19.9736 9.07761 19.77Z" fill="white"/>
<path d="M20.0839 10.6372L12.1549 15.1378L12.1381 15.1474C11.7725 15.3582 11.4977 15.6959 11.3615 16.0935C11.2014 16.5653 11.2492 17.0827 11.4929 17.5162L11.5359 17.5929L19.1256 13.2839L19.4745 13.0851C20.3038 12.6109 20.5953 11.545 20.1245 10.7115L20.0839 10.6372Z" fill="white"/>
<path d="M20.0839 15.0969L12.4942 19.4059L12.0425 19.6646L12.0449 19.667C11.7271 19.8778 11.4881 20.1891 11.3615 20.5532C11.2014 21.0251 11.2492 21.5448 11.4929 21.9784L11.5359 22.055L19.465 17.5544L19.4721 17.5496C20.3038 17.0754 20.5977 16.0095 20.1245 15.176L20.0839 15.0969Z" fill="white"/>
<path d="M11.5359 13.133L19.3957 8.67071C19.4196 8.65873 19.4435 8.64435 19.4721 8.62998C19.5056 8.61082 19.5367 8.59167 19.5749 8.56771C19.6155 8.54137 19.6561 8.51262 19.6944 8.48148H19.7159L19.7326 8.45034C19.7732 8.41681 19.8139 8.38089 19.8497 8.34256C19.8784 8.31382 19.9047 8.28507 19.9286 8.25633C20.005 8.16771 20.0696 8.0719 20.1245 7.9737C20.428 7.43478 20.428 6.79286 20.1245 6.25633L20.0815 6.17969L12.1405 10.6875C11.7749 10.8982 11.4977 11.236 11.3615 11.636C11.2014 12.1078 11.2492 12.6276 11.4929 13.0587L11.5359 13.133Z" fill="white"/>
</svg>
