<svg width="125" height="39" viewBox="0 0 125 39" fill="none" xmlns="http://www.w3.org/2000/svg">
<g clip-path="url(#clip0)">
<path d="M81.4228 8.37769H81.4205C80.614 8.37769 79.9614 9.03026 79.9614 9.83679C79.9614 10.6433 80.614 11.2959 81.4205 11.2959H81.4228C82.2293 11.2959 82.8819 10.6433 82.8819 9.83679C82.8819 9.03026 82.2293 8.37769 81.4228 8.37769Z" fill="#061534"/>
<path d="M99.1829 17.1346C97.8502 15.363 95.7316 14.2164 93.3442 14.2164C91.7013 14.2164 90.1847 14.7587 88.9669 15.6755V11.2982C88.9669 9.68514 87.6594 8.37769 86.0464 8.37769V21.5119C86.0464 22.0105 86.0969 22.4999 86.1934 22.971C86.4117 24.0486 86.869 25.0413 87.5078 25.8892C87.9214 26.4429 88.4131 26.937 88.9669 27.3483C90.187 28.2674 91.7013 28.8074 93.3442 28.8074C95.7316 28.8074 97.8525 27.6608 99.1829 25.8869C99.8217 25.039 100.279 24.0463 100.497 22.9687C100.594 22.4976 100.644 22.0082 100.644 21.5096C100.644 21.0087 100.594 20.5215 100.497 20.0505C100.277 18.9728 99.8217 17.9802 99.1829 17.1346ZM97.4733 22.971C96.8713 24.6713 95.2491 25.8892 93.3442 25.8892C91.4393 25.8892 89.8171 24.6713 89.2151 22.971C89.0565 22.516 88.9669 22.0243 88.9669 21.5119C88.9669 20.9995 89.0565 20.5077 89.2151 20.0528C89.8171 18.3524 91.4393 17.1346 93.3442 17.1346C95.2491 17.1346 96.8713 18.3524 97.4733 20.0528C97.6319 20.5077 97.7215 20.9995 97.7215 21.5119C97.7215 22.0243 97.6342 22.516 97.4733 22.971Z" fill="#061534"/>
<path d="M58.9972 17.1345C57.6645 15.3629 55.5459 14.2163 53.1585 14.2163C50.7711 14.2163 48.6526 15.3629 47.3244 17.1345C46.6857 17.9824 46.2284 18.975 46.0101 20.0527C45.9136 20.5238 45.863 21.0132 45.863 21.5118C45.863 22.0104 45.9136 22.4999 46.0101 22.9709C46.2284 24.0486 46.6857 25.0412 47.3244 25.8891C48.6526 27.663 50.7734 28.8096 53.1585 28.8096C55.5459 28.8096 57.6668 27.663 58.9972 25.8891C59.636 25.0412 60.0933 24.0486 60.3116 22.9709C60.4081 22.4999 60.4586 22.0104 60.4586 21.5118C60.4586 21.0109 60.4081 20.5238 60.3116 20.0527C60.091 18.9727 59.636 17.9801 58.9972 17.1345ZM57.2877 22.9709C56.6856 24.6713 55.0634 25.8891 53.1585 25.8891C51.2537 25.8891 49.6314 24.6713 49.0294 22.9709C48.8708 22.5159 48.7812 22.0242 48.7812 21.5118C48.7812 20.9994 48.8708 20.5077 49.0294 20.0527C49.6314 18.3523 51.2537 17.1345 53.1585 17.1345C55.0634 17.1345 56.6856 18.3523 57.2877 20.0527C57.4462 20.5077 57.5358 20.9994 57.5358 21.5118C57.5358 22.0242 57.4485 22.5159 57.2877 22.9709Z" fill="#061534"/>
<path d="M79.9614 17.1368V28.8096H82.8819V14.2163C81.2689 14.2163 79.9614 15.5238 79.9614 17.1368Z" fill="#061534"/>
<path d="M114.063 14.2163V21.5118C114.063 22.0242 113.973 22.5159 113.815 22.9709C113.213 24.6713 111.591 25.8891 109.686 25.8891C107.781 25.8891 106.159 24.6713 105.557 22.9709C105.398 22.5159 105.308 22.0242 105.308 21.5118V14.2163H102.388V21.5118C102.388 22.0104 102.438 22.4999 102.535 22.9709C102.753 24.0486 103.211 25.0412 103.849 25.8891C104.263 26.4429 104.755 26.9369 105.308 27.3482C106.529 28.2673 108.043 28.8073 109.686 28.8073C111.329 28.8073 112.845 28.265 114.063 27.3482C114.617 26.9346 115.111 26.4429 115.522 25.8891C116.161 25.0412 116.618 24.0486 116.836 22.9709C116.933 22.4999 116.984 22.0104 116.984 21.5118V14.2163H114.063Z" fill="#061534"/>
<path d="M38.2774 14.2163C36.6345 14.2163 35.1179 14.7586 33.9001 15.6754C33.5531 15.9351 33.2291 16.2246 32.9396 16.5417C32.7581 16.7301 32.5949 16.9254 32.4387 17.1322C31.7999 17.9801 31.3449 18.9727 31.1244 20.0504C31.0278 20.5215 30.9773 21.0109 30.9773 21.5095C30.9773 22.0081 31.0278 22.4976 31.1244 22.9686C31.3426 24.0463 31.7999 25.0389 32.4387 25.8868C32.5926 26.0936 32.7604 26.2935 32.9396 26.4819C33.2337 26.799 33.5554 27.0886 33.9001 27.3482C35.1202 28.2673 36.6345 28.8073 38.2774 28.8073C40.6648 28.8073 42.7857 27.6607 44.1161 25.8868L41.8711 24.0072C41.0807 25.1423 39.7664 25.8868 38.2774 25.8868C37.0687 25.8868 35.975 25.3974 35.1823 24.6046C34.725 24.1474 34.3688 23.5913 34.1482 22.9686C33.9897 22.5136 33.9001 22.0219 33.9001 21.5095C33.9001 20.9971 33.9897 20.5054 34.1482 20.0504C34.3688 19.4277 34.725 18.8739 35.1823 18.4144C35.975 17.6216 37.0687 17.1322 38.2774 17.1322C39.7664 17.1322 41.0807 17.8744 41.8711 19.0118L44.1161 17.1345V17.1322C42.7834 15.3629 40.6648 14.2163 38.2774 14.2163Z" fill="#061534"/>
<path d="M73.8776 11.2981V15.6754C72.6575 14.7563 71.1432 14.2163 69.5003 14.2163C67.1129 14.2163 64.9943 15.3629 63.6616 17.1345C63.0228 17.9824 62.5678 18.975 62.3473 20.0527C62.2507 20.5237 62.2002 21.0132 62.2002 21.5118C62.2002 22.0104 62.2507 22.4998 62.3473 22.9709C62.5655 24.0485 63.0228 25.0412 63.6616 25.8891C64.992 27.663 67.1129 28.8096 69.5003 28.8096C71.1432 28.8096 72.6598 28.2673 73.8776 27.3505C74.4314 26.9369 74.9254 26.4451 75.3367 25.8914C75.9755 25.0435 76.4327 24.0508 76.651 22.9732C76.7475 22.5021 76.7981 22.0127 76.7981 21.5141V8.37989C75.185 8.37759 73.8776 9.68504 73.8776 11.2981ZM73.6294 22.9709C73.0274 24.6712 71.4052 25.8891 69.5003 25.8891C67.5954 25.8891 65.9732 24.6712 65.3711 22.9709C65.2126 22.5159 65.123 22.0242 65.123 21.5118C65.123 20.9994 65.2126 20.5076 65.3711 20.0527C65.9732 18.3523 67.5954 17.1345 69.5003 17.1345C71.4052 17.1345 73.0274 18.3523 73.6294 20.0527C73.788 20.5076 73.8776 20.9994 73.8776 21.5118C73.8776 22.0242 73.788 22.5159 73.6294 22.9709Z" fill="#061534"/>
<path d="M14.847 8.72266L7.21602 13.0448C7.18385 13.0632 7.15398 13.0816 7.12181 13.1023C6.90122 13.2493 6.72199 13.44 6.58872 13.6721L6.54736 13.7456L8.04323 14.5912L14.2519 11.0733C14.608 10.8711 14.8792 10.5448 15.0124 10.1565C15.1664 9.70382 15.1204 9.20749 14.8838 8.79389L14.847 8.72266Z" fill="black"/>
<path d="M25.1173 13.674C25.0323 13.5247 24.9266 13.3914 24.8025 13.2719C24.7611 13.2328 24.7197 13.1984 24.6761 13.1639C24.6163 13.1202 24.5566 13.0789 24.4992 13.0467L16.8636 8.71997L16.8222 8.79349C16.5879 9.2094 16.5396 9.70572 16.6936 10.1561C16.8222 10.5375 17.0842 10.8592 17.4426 11.0683L23.6628 14.5931L25.1586 13.7452L25.1173 13.674Z" fill="black"/>
<path d="M6.62012 15.3722L6.62931 15.3929L6.6385 15.3975C6.64769 15.4135 6.65688 15.4273 6.66608 15.4411C6.69365 15.4848 6.72582 15.5261 6.75799 15.5629L6.79934 15.6112C6.81543 15.6318 6.83381 15.6525 6.8522 15.6686L6.88207 15.6985C6.90964 15.726 6.93951 15.7513 6.96709 15.7743C6.99236 15.7973 7.02223 15.818 7.04291 15.834C7.0567 15.8455 7.06819 15.8547 7.08198 15.8616L7.14401 15.9053C7.15091 15.9099 7.1578 15.9145 7.16699 15.9214C7.18308 15.9306 7.20146 15.942 7.21754 15.9512L14.8485 20.2734L14.8899 20.1999C15.1265 19.7839 15.1725 19.2853 15.0163 18.835C14.8853 18.4466 14.6164 18.1226 14.2557 17.9181L6.6316 13.6006L6.59024 13.6741C6.29842 14.1911 6.29843 14.8069 6.58795 15.3216C6.60174 15.3377 6.61093 15.3561 6.62012 15.3722Z" fill="#061534"/>
<path d="M14.2708 22.2057L6.63295 17.8789L6.59159 17.9524C6.14582 18.7383 6.41696 19.7539 7.19591 20.2181L14.8499 24.554L14.8912 24.4805C15.1279 24.0646 15.1738 23.5659 15.0176 23.1179C14.8889 22.7318 14.6224 22.4102 14.2708 22.2057Z" fill="#061534"/>
<path d="M14.4978 26.6404H14.5484L6.63478 22.1597L6.59342 22.2332C6.37284 22.6215 6.31769 23.0742 6.43718 23.5039C6.55666 23.9336 6.83699 24.292 7.2368 24.5195L12.0116 27.224L14.8494 28.8325L14.8908 28.7589C15.1274 28.343 15.1734 27.8444 15.0171 27.394C14.9183 27.0953 14.7368 26.8357 14.4978 26.6404Z" fill="#061534"/>
<path d="M25.0808 17.8789L17.4567 22.1965L17.4406 22.2057C17.0891 22.4079 16.8248 22.7318 16.6938 23.1133C16.5399 23.5659 16.5858 24.0623 16.8202 24.4782L16.8616 24.5517L24.1594 20.418L24.4948 20.2273C25.2922 19.7723 25.5725 18.7498 25.1198 17.9501L25.0808 17.8789Z" fill="#061534"/>
<path d="M25.0808 22.1575L17.783 26.2912L17.3487 26.5394L17.351 26.5417C17.0454 26.7439 16.8156 27.0426 16.6938 27.3918C16.5399 27.8445 16.5858 28.3431 16.8202 28.759L16.8616 28.8326L24.4857 24.515L24.4925 24.5104C25.2922 24.0555 25.5748 23.0329 25.1198 22.2333L25.0808 22.1575Z" fill="#061534"/>
<path d="M16.8616 20.2733L24.419 15.9925C24.442 15.981 24.465 15.9672 24.4925 15.9534C24.5247 15.935 24.5546 15.9167 24.5914 15.8937C24.6304 15.8684 24.6695 15.8408 24.7062 15.811H24.7269L24.743 15.7811C24.7821 15.7489 24.8211 15.7145 24.8556 15.6777C24.8832 15.6501 24.9085 15.6225 24.9314 15.595C25.005 15.5099 25.067 15.418 25.1198 15.3238C25.4117 14.8068 25.4117 14.191 25.1198 13.6763L25.0785 13.6028L17.4429 17.9272C17.0914 18.1294 16.8248 18.4534 16.6938 18.8372C16.5399 19.2898 16.5858 19.7884 16.8202 20.202L16.8616 20.2733Z" fill="#061534"/>
</g>
<defs>
<clipPath id="clip0">
<rect width="125" height="38.3732" fill="white"/>
</clipPath>
</defs>
</svg>
