<svg width="120" height="120" viewBox="0 0 120 120" fill="none" xmlns="http://www.w3.org/2000/svg">
<rect x="-0.707107" width="83.8528" height="83.8528" rx="24.5" transform="matrix(-0.707107 -0.707107 -0.707107 0.707107 118.793 59.5)" stroke="url(#paint0_linear)" stroke-opacity="0.4"/>
<path d="M73.1709 79V80H74.1709V79H73.1709ZM48.2197 79H47.2197V80H48.2197V79ZM48.2197 73.751L47.5088 73.0477L47.2197 73.3399V73.751H48.2197ZM57.1797 64.6934L57.8906 65.3966L57.8953 65.3918L57.1797 64.6934ZM62.3799 59.0537L63.1679 59.6694L63.1725 59.6634L62.3799 59.0537ZM63.4785 50.1426L62.8112 50.8875L62.8189 50.8942L63.4785 50.1426ZM52.2236 52.7549L51.4595 53.4L52.0983 54.1566L52.8612 53.5253L52.2236 52.7549ZM48.1221 47.8965L47.4736 47.1352L46.7157 47.7808L47.358 48.5416L48.1221 47.8965ZM56.2764 43.3066L56.508 44.2795L56.5189 44.2768L56.2764 43.3066ZM70.7539 47.4326L69.9133 47.9743L70.7539 47.4326ZM71.291 57.1006L70.364 56.7256L70.3618 56.731L71.291 57.1006ZM68.6055 61.5195L67.827 60.8918L67.823 60.8969L68.6055 61.5195ZM62.209 67.9893L61.534 67.2515L61.5287 67.2563L61.5235 67.2612L62.209 67.9893ZM57.6191 72.3105L56.9337 71.5825L56.6191 71.8786V72.3105H57.6191ZM57.6191 72.6523H56.6191V73.6523H57.6191V72.6523ZM73.1709 72.6523H74.1709V71.6523H73.1709V72.6523ZM73.1709 78H48.2197V80H73.1709V78ZM49.2197 79V73.751H47.2197V79H49.2197ZM48.9307 74.4542L57.8906 65.3966L56.4688 63.9901L47.5088 73.0477L48.9307 74.4542ZM57.8953 65.3918C60.5431 62.6791 62.3149 60.7612 63.1679 59.6694L61.5919 58.4381C60.8173 59.4296 59.1223 61.2714 56.4641 63.9949L57.8953 65.3918ZM63.1725 59.6634C64.0225 58.5584 64.6637 57.5015 65.0662 56.4954L63.2092 55.7526C62.8955 56.5369 62.3648 57.4332 61.5873 58.444L63.1725 59.6634ZM65.0662 56.4954C65.4713 55.4826 65.6748 54.4288 65.6748 53.3408H63.6748C63.6748 54.1734 63.5202 54.9751 63.2092 55.7526L65.0662 56.4954ZM65.6748 53.3408C65.6748 51.7265 65.2205 50.3408 64.1381 49.391L62.8189 50.8942C63.3316 51.3441 63.6748 52.0906 63.6748 53.3408H65.6748ZM64.1458 49.3977C63.1375 48.4945 61.8281 48.0928 60.3291 48.0928V50.0928C61.4668 50.0928 62.257 50.3909 62.8113 50.8874L64.1458 49.3977ZM60.3291 48.0928C58.7866 48.0928 57.2946 48.448 55.8626 49.146L56.739 50.9438C57.9112 50.3724 59.1047 50.0928 60.3291 50.0928V48.0928ZM55.8626 49.146C54.4731 49.8234 53.0477 50.7749 51.5861 51.9845L52.8612 53.5253C54.2316 52.3912 55.5243 51.536 56.739 50.9438L55.8626 49.146ZM52.9877 52.1098L48.8862 47.2514L47.358 48.5416L51.4595 53.4L52.9877 52.1098ZM48.7705 48.6577C50.5084 47.1773 51.9017 46.1729 52.9641 45.6043L52.0203 43.841C50.7715 44.5094 49.2514 45.6208 47.4736 47.1352L48.7705 48.6577ZM52.9641 45.6043C54.0386 45.0292 55.2185 44.5865 56.508 44.2794L56.0447 42.3338C54.5999 42.6778 53.257 43.1791 52.0203 43.841L52.9641 45.6043ZM56.5189 44.2768C57.7928 43.9583 59.2395 43.7939 60.8662 43.7939V41.7939C59.1075 41.7939 57.4943 41.9714 56.0338 42.3365L56.5189 44.2768ZM60.8662 43.7939C62.9735 43.7939 64.7917 44.1781 66.3445 44.9175L67.2043 43.1118C65.3392 42.2236 63.2185 41.7939 60.8662 41.7939V43.7939ZM66.3445 44.9175C67.9007 45.6586 69.0786 46.6791 69.9133 47.9743L71.5945 46.8909C70.5412 45.2565 69.0661 43.9983 67.2043 43.1118L66.3445 44.9175ZM69.9133 47.9743C70.7446 49.2642 71.1699 50.7493 71.1699 52.4619H73.1699C73.1699 50.3985 72.6513 48.5307 71.5945 46.8909L69.9133 47.9743ZM71.1699 52.4619C71.1699 53.9841 70.8992 55.4023 70.364 56.7256L72.218 57.4756C72.8547 55.9017 73.1699 54.2275 73.1699 52.4619H71.1699ZM70.3618 56.731C69.8374 58.0495 69.0005 59.4367 67.8271 60.8918L69.3839 62.1473C70.6518 60.575 71.6053 59.0162 72.2202 57.4702L70.3618 56.731ZM67.823 60.8969C66.6709 62.3448 64.5886 64.4568 61.534 67.2515L62.884 68.7271C65.9492 65.9227 68.1312 63.7216 69.388 62.1422L67.823 60.8969ZM61.5235 67.2612L56.9337 71.5825L58.3046 73.0386L62.8945 68.7173L61.5235 67.2612ZM56.6191 72.3105V72.6523H58.6191V72.3105H56.6191ZM57.6191 73.6523H73.1709V71.6523H57.6191V73.6523ZM72.1709 72.6523V79H74.1709V72.6523H72.1709Z" fill="url(#paint1_linear)" fill-opacity="0.6"/>
<defs>
<linearGradient id="paint0_linear" x1="4.47835" y1="7.54247" x2="81.553" y2="80.3745" gradientUnits="userSpaceOnUse">
<stop/>
<stop offset="1" stop-color="#0085B1"/>
</linearGradient>
<linearGradient id="paint1_linear" x1="60.5" y1="49" x2="60.5" y2="80.5" gradientUnits="userSpaceOnUse">
<stop/>
<stop offset="1" stop-color="#005F7E" stop-opacity="0.9"/>
</linearGradient>
</defs>
</svg>
