<svg width="120" height="120" viewBox="0 0 120 120" fill="none" xmlns="http://www.w3.org/2000/svg">
<rect x="0.707107" width="83.8528" height="83.8528" rx="24.5" transform="matrix(0.707107 0.707107 0.707107 -0.707107 0.207107 59.5)" stroke="url(#paint0_linear)" stroke-opacity="0.4"/>
<path d="M61.7971 59.1345L61.5637 58.1621L60.7971 58.3461V59.1345H61.7971ZM61.7971 59.281H60.7971V60.1644L61.6738 60.2734L61.7971 59.281ZM68.3401 61.9177L67.6532 62.6445L67.6575 62.6485L68.3401 61.9177ZM66.8264 75.5652L67.4339 76.3596L67.4371 76.357L66.8264 75.5652ZM45.8547 76.4929H44.8547V77.1518L45.4602 77.4118L45.8547 76.4929ZM45.8547 70.072L46.3061 69.1797L44.8547 68.4455V70.072H45.8547ZM60.8694 71.1707L61.4496 71.9851L60.8694 71.1707ZM51.3479 62.4792H50.3479V63.4792H51.3479V62.4792ZM51.3479 56.6931V55.6931H50.3479V56.6931H51.3479ZM60.1614 55.6189L60.6527 56.4899L60.6563 56.4878L60.1614 55.6189ZM53.4231 48.4167L53.1183 47.4643L53.1146 47.4655L53.4231 48.4167ZM49.3948 50.4431L48.5645 51.0005L49.1131 51.8176L49.9388 51.2822L49.3948 50.4431ZM45.9036 45.2429L45.3193 44.4314L44.5339 44.9968L45.0733 45.8003L45.9036 45.2429ZM66.2893 43.9734L65.7146 44.7917L65.7175 44.7938L66.2893 43.9734ZM68.512 50.2234C68.512 52.2337 67.91 53.8921 66.7291 55.2578L68.2421 56.5659C69.7631 54.8067 70.512 52.6727 70.512 50.2234H68.512ZM66.7291 55.2578C65.5423 56.6306 63.8465 57.6143 61.5637 58.1621L62.0305 60.1069C64.6306 59.4829 66.7271 58.3181 68.2421 56.5659L66.7291 55.2578ZM60.7971 59.1345V59.281H62.7971V59.1345H60.7971ZM61.6738 60.2734C64.4301 60.616 66.3802 61.4414 67.6532 62.6445L69.0269 61.1909C67.3377 59.5945 64.9259 58.6622 61.9205 58.2886L61.6738 60.2734ZM67.6575 62.6485C68.9024 63.8114 69.5618 65.4002 69.5618 67.533H71.5618C71.5618 64.9456 70.74 62.791 69.0227 61.1869L67.6575 62.6485ZM69.5618 67.533C69.5618 70.69 68.4356 73.0613 66.2157 74.7733L67.4371 76.357C70.1977 74.2279 71.5618 71.2444 71.5618 67.533H69.5618ZM66.219 74.7708C63.9686 76.4917 60.6602 77.4216 56.1575 77.4216V79.4216C60.8995 79.4216 64.7037 78.4473 67.4339 76.3595L66.219 74.7708ZM56.1575 77.4216C52.3943 77.4216 49.0982 76.7972 46.2493 75.574L45.4602 77.4118C48.6008 78.7602 52.1733 79.4216 56.1575 79.4216V77.4216ZM46.8547 76.4929V70.072H44.8547V76.4929H46.8547ZM45.4033 70.9643C46.8554 71.6989 48.4437 72.2923 50.1643 72.7477L50.6761 70.8143C49.0764 70.3908 47.621 69.8448 46.3061 69.1797L45.4033 70.9643ZM50.1643 72.7477C51.9033 73.2081 53.6332 73.4402 55.3518 73.4402V71.4402C53.8152 71.4402 52.2573 71.2329 50.6761 70.8143L50.1643 72.7477ZM55.3518 73.4402C57.9183 73.4402 60.0095 73.0109 61.4496 71.9851L60.2892 70.3562C59.353 71.0231 57.7658 71.4402 55.3518 71.4402V73.4402ZM61.4496 71.9851C62.9742 70.8991 63.6516 69.1871 63.6516 67.0935H61.6516C61.6516 68.7434 61.1408 69.7495 60.2892 70.3562L61.4496 71.9851ZM63.6516 67.0935C63.6516 66.1191 63.4523 65.2226 63.0057 64.4464C62.5562 63.6652 61.8907 63.0659 61.0565 62.6389L60.1452 64.4192C60.6782 64.6921 61.038 65.0368 61.2721 65.4438C61.5091 65.8557 61.6516 66.3915 61.6516 67.0935H63.6516ZM61.0565 62.6389C59.469 61.8262 57.0879 61.4792 54.0579 61.4792V63.4792C57.0174 63.4792 58.9983 63.8321 60.1452 64.4192L61.0565 62.6389ZM54.0579 61.4792H51.3479V63.4792H54.0579V61.4792ZM52.3479 62.4792V56.6931H50.3479V62.4792H52.3479ZM51.3479 57.6931H54.1067V55.6931H51.3479V57.6931ZM54.1067 57.6931C56.9166 57.6931 59.1509 57.337 60.6527 56.4899L59.6701 54.7479C58.6328 55.333 56.8306 55.6931 54.1067 55.6931V57.6931ZM60.6563 56.4878C62.3183 55.5411 63.0901 53.9205 63.0901 51.8835H61.0901C61.0901 53.3622 60.5761 54.2318 59.6664 54.75L60.6563 56.4878ZM63.0901 51.8835C63.0901 50.3111 62.5863 48.9738 61.4443 48.0624C60.3454 47.1854 58.8111 46.8308 57.012 46.8308V48.8308C58.5982 48.8308 59.603 49.1517 60.1968 49.6256C60.7475 50.0651 61.0901 50.7542 61.0901 51.8835H63.0901ZM57.012 46.8308C55.7274 46.8308 54.4284 47.0451 53.1183 47.4643L53.7279 49.3692C54.8592 49.0071 55.9527 48.8308 57.012 48.8308V46.8308ZM53.1146 47.4655C51.8017 47.8913 50.3787 48.6134 48.8508 49.604L49.9388 51.2822C51.3731 50.3523 52.6357 49.7234 53.7316 49.368L53.1146 47.4655ZM50.225 49.8857L46.7338 44.6855L45.0733 45.8003L48.5645 51.0005L50.225 49.8857ZM46.4879 46.0545C49.5521 43.8482 53.2232 42.7273 57.5491 42.7273V40.7273C52.858 40.7273 48.7654 41.9501 45.3193 44.4314L46.4879 46.0545ZM57.5491 42.7273C61.1209 42.7273 63.8078 43.4526 65.7146 44.7917L66.864 43.155C64.5065 41.4994 61.3665 40.7273 57.5491 40.7273V42.7273ZM65.7175 44.7938C67.5915 46.0999 68.512 47.8736 68.512 50.2234H70.512C70.512 47.2346 69.284 44.8416 66.8611 43.153L65.7175 44.7938Z" fill="url(#paint1_linear)" fill-opacity="0.6"/>
<defs>
<linearGradient id="paint0_linear" x1="4.47835" y1="7.54247" x2="81.553" y2="80.3745" gradientUnits="userSpaceOnUse">
<stop/>
<stop offset="1" stop-color="#0085B1"/>
</linearGradient>
<linearGradient id="paint1_linear" x1="58.2327" y1="47.9333" x2="58.2327" y2="79.4333" gradientUnits="userSpaceOnUse">
<stop/>
<stop offset="1" stop-color="#005F7E" stop-opacity="0.9"/>
</linearGradient>
</defs>
</svg>
