<svg width="120" height="120" viewBox="0 0 120 120" fill="none" xmlns="http://www.w3.org/2000/svg">
<rect x="0.707107" y="60" width="83.8528" height="83.8528" rx="24.5" transform="rotate(-45 0.707107 60)" stroke="url(#paint0_linear)" stroke-opacity="0.4"/>
<path d="M65.8721 79V80H66.8721V79H65.8721ZM58.3281 79H57.3281V80H58.3281V79ZM58.3281 58.3457L57.3284 58.3241L57.3281 58.3349V58.3457H58.3281ZM58.4014 54.9521L57.4018 54.9193L57.4016 54.9306L58.4014 54.9521ZM58.5234 51.2412L59.5229 51.2741L59.6061 48.7443L57.8163 50.5341L58.5234 51.2412ZM55.9111 53.707L55.2864 52.9262L55.2847 52.9275L55.9111 53.707ZM51.8096 57.0029L51.0291 57.6281L51.6553 58.4098L52.436 57.7824L51.8096 57.0029ZM48.1719 52.4619L47.549 51.6796L46.7643 52.3043L47.3914 53.0871L48.1719 52.4619ZM59.6709 43.3066V42.3066H59.3214L59.048 42.5243L59.6709 43.3066ZM65.8721 43.3066H66.8721V42.3066H65.8721V43.3066ZM65.8721 78H58.3281V80H65.8721V78ZM59.3281 79V58.3457H57.3281V79H59.3281ZM59.3279 58.3673L59.4011 54.9737L57.4016 54.9306L57.3284 58.3241L59.3279 58.3673ZM59.4008 54.985L59.5229 51.2741L57.524 51.2083L57.4019 54.9193L59.4008 54.985ZM57.8163 50.5341C56.5582 51.7923 55.7249 52.5754 55.2864 52.9262L56.5358 54.4879C57.0739 54.0574 57.9822 53.1967 59.2305 51.9483L57.8163 50.5341ZM55.2847 52.9275L51.1832 56.2234L52.436 57.7824L56.5375 54.4865L55.2847 52.9275ZM52.59 56.3777L48.9523 51.8367L47.3914 53.0871L51.0291 57.6281L52.59 56.3777ZM48.7947 53.2442L60.2938 44.089L59.048 42.5243L47.549 51.6796L48.7947 53.2442ZM59.6709 44.3066H65.8721V42.3066H59.6709V44.3066ZM64.8721 43.3066V79H66.8721V43.3066H64.8721Z" fill="url(#paint1_linear)" fill-opacity="0.6"/>
<defs>
<linearGradient id="paint0_linear" x1="4.47834" y1="67.5425" x2="81.553" y2="140.374" gradientUnits="userSpaceOnUse">
<stop/>
<stop offset="1" stop-color="#0085B1"/>
</linearGradient>
<linearGradient id="paint1_linear" x1="59.5" y1="49" x2="59.5" y2="80.5" gradientUnits="userSpaceOnUse">
<stop/>
<stop offset="1" stop-color="#005F7E" stop-opacity="0.9"/>
</linearGradient>
</defs>
</svg>
